<mxfile host="app.diagrams.net" agent="Mozilla/5.0 (Windows NT 10.0; Win64; x64) AppleWebKit/537.36 (KHTML, like Gecko) Chrome/131.0.0.0 Safari/537.36" version="25.0.1">
  <diagram name="Page-1" id="dSJH2aCxagZpSAD6MMlF">
    <mxGraphModel dx="2610" dy="936" grid="1" gridSize="10" guides="1" tooltips="1" connect="1" arrows="1" fold="1" page="1" pageScale="1" pageWidth="850" pageHeight="1100" math="0" shadow="0">
      <root>
        <mxCell id="0" />
        <mxCell id="1" parent="0" />
        <mxCell id="AMsg4iov6ipe1h9Xt787-1" value="Vendor" style="whiteSpace=wrap;html=1;align=center;" vertex="1" parent="1">
          <mxGeometry x="100" y="150" width="100" height="40" as="geometry" />
        </mxCell>
        <mxCell id="AMsg4iov6ipe1h9Xt787-2" value="Vendor ID" style="ellipse;whiteSpace=wrap;html=1;align=center;fontStyle=4;" vertex="1" parent="1">
          <mxGeometry x="-40" y="50" width="100" height="40" as="geometry" />
        </mxCell>
        <mxCell id="AMsg4iov6ipe1h9Xt787-3" value="StartDate" style="ellipse;whiteSpace=wrap;html=1;align=center;" vertex="1" parent="1">
          <mxGeometry x="830" y="370" width="100" height="40" as="geometry" />
        </mxCell>
        <mxCell id="AMsg4iov6ipe1h9Xt787-94" style="edgeStyle=orthogonalEdgeStyle;rounded=0;orthogonalLoop=1;jettySize=auto;html=1;entryX=0.5;entryY=1;entryDx=0;entryDy=0;" edge="1" parent="1" source="AMsg4iov6ipe1h9Xt787-4" target="AMsg4iov6ipe1h9Xt787-11">
          <mxGeometry relative="1" as="geometry" />
        </mxCell>
        <mxCell id="AMsg4iov6ipe1h9Xt787-4" value="EndDate" style="ellipse;whiteSpace=wrap;html=1;align=center;" vertex="1" parent="1">
          <mxGeometry x="760" y="320" width="100" height="40" as="geometry" />
        </mxCell>
        <mxCell id="AMsg4iov6ipe1h9Xt787-5" value="Vendor ID(FK)" style="ellipse;whiteSpace=wrap;html=1;align=center;" vertex="1" parent="1">
          <mxGeometry x="740" y="40" width="100" height="40" as="geometry" />
        </mxCell>
        <mxCell id="AMsg4iov6ipe1h9Xt787-6" value="performane reating" style="ellipse;whiteSpace=wrap;html=1;align=center;" vertex="1" parent="1">
          <mxGeometry x="90" y="370" width="100" height="40" as="geometry" />
        </mxCell>
        <mxCell id="AMsg4iov6ipe1h9Xt787-9" value="Contact Info" style="ellipse;whiteSpace=wrap;html=1;align=center;" vertex="1" parent="1">
          <mxGeometry x="-50" y="130" width="100" height="40" as="geometry" />
        </mxCell>
        <mxCell id="AMsg4iov6ipe1h9Xt787-10" value="Venodr Name" style="ellipse;whiteSpace=wrap;html=1;align=center;" vertex="1" parent="1">
          <mxGeometry x="90" y="30" width="100" height="40" as="geometry" />
        </mxCell>
        <mxCell id="AMsg4iov6ipe1h9Xt787-11" value="Contract&amp;nbsp;" style="whiteSpace=wrap;html=1;align=center;" vertex="1" parent="1">
          <mxGeometry x="760" y="150" width="100" height="40" as="geometry" />
        </mxCell>
        <mxCell id="AMsg4iov6ipe1h9Xt787-12" value="Contract ID" style="ellipse;whiteSpace=wrap;html=1;align=center;fontStyle=4;" vertex="1" parent="1">
          <mxGeometry x="890" y="50" width="100" height="40" as="geometry" />
        </mxCell>
        <mxCell id="AMsg4iov6ipe1h9Xt787-13" value="Compliance&amp;nbsp;Certifications" style="ellipse;shape=doubleEllipse;margin=3;whiteSpace=wrap;html=1;align=center;" vertex="1" parent="1">
          <mxGeometry x="-70" y="320" width="140" height="60" as="geometry" />
        </mxCell>
        <mxCell id="AMsg4iov6ipe1h9Xt787-86" style="edgeStyle=orthogonalEdgeStyle;rounded=0;orthogonalLoop=1;jettySize=auto;html=1;entryX=0;entryY=0.75;entryDx=0;entryDy=0;" edge="1" parent="1" source="AMsg4iov6ipe1h9Xt787-14" target="AMsg4iov6ipe1h9Xt787-1">
          <mxGeometry relative="1" as="geometry" />
        </mxCell>
        <mxCell id="AMsg4iov6ipe1h9Xt787-14" value="ServiceCategory" style="ellipse;shape=doubleEllipse;margin=3;whiteSpace=wrap;html=1;align=center;" vertex="1" parent="1">
          <mxGeometry x="-130" y="190" width="100" height="40" as="geometry" />
        </mxCell>
        <mxCell id="AMsg4iov6ipe1h9Xt787-96" style="edgeStyle=orthogonalEdgeStyle;rounded=0;orthogonalLoop=1;jettySize=auto;html=1;entryX=1;entryY=0.25;entryDx=0;entryDy=0;" edge="1" parent="1" source="AMsg4iov6ipe1h9Xt787-15" target="AMsg4iov6ipe1h9Xt787-11">
          <mxGeometry relative="1" as="geometry" />
        </mxCell>
        <mxCell id="AMsg4iov6ipe1h9Xt787-15" value="Terms and Conditions" style="ellipse;whiteSpace=wrap;html=1;align=center;" vertex="1" parent="1">
          <mxGeometry x="960" y="140" width="100" height="40" as="geometry" />
        </mxCell>
        <mxCell id="AMsg4iov6ipe1h9Xt787-16" value="Status" style="ellipse;whiteSpace=wrap;html=1;align=center;dashed=1;" vertex="1" parent="1">
          <mxGeometry x="690" y="260" width="100" height="40" as="geometry" />
        </mxCell>
        <mxCell id="AMsg4iov6ipe1h9Xt787-99" style="edgeStyle=orthogonalEdgeStyle;rounded=0;orthogonalLoop=1;jettySize=auto;html=1;entryX=0;entryY=0.25;entryDx=0;entryDy=0;" edge="1" parent="1" source="AMsg4iov6ipe1h9Xt787-18" target="AMsg4iov6ipe1h9Xt787-17">
          <mxGeometry relative="1" as="geometry" />
        </mxCell>
        <mxCell id="AMsg4iov6ipe1h9Xt787-18" value="&#xa;POID&#xa;&#xa;" style="ellipse;whiteSpace=wrap;html=1;align=center;fontStyle=4;" vertex="1" parent="1">
          <mxGeometry x="-80" y="590" width="100" height="40" as="geometry" />
        </mxCell>
        <mxCell id="AMsg4iov6ipe1h9Xt787-19" value="&#xa;Status&#xa;&#xa;" style="ellipse;whiteSpace=wrap;html=1;align=center;" vertex="1" parent="1">
          <mxGeometry x="180" y="740" width="100" height="40" as="geometry" />
        </mxCell>
        <mxCell id="AMsg4iov6ipe1h9Xt787-100" style="edgeStyle=orthogonalEdgeStyle;rounded=0;orthogonalLoop=1;jettySize=auto;html=1;entryX=0;entryY=0.75;entryDx=0;entryDy=0;" edge="1" parent="1" source="AMsg4iov6ipe1h9Xt787-20" target="AMsg4iov6ipe1h9Xt787-17">
          <mxGeometry relative="1" as="geometry" />
        </mxCell>
        <mxCell id="AMsg4iov6ipe1h9Xt787-20" value="&lt;br&gt;Order&lt;div&gt;Date&lt;br&gt;&lt;br&gt;&lt;/div&gt;" style="ellipse;whiteSpace=wrap;html=1;align=center;" vertex="1" parent="1">
          <mxGeometry x="-50" y="650" width="100" height="40" as="geometry" />
        </mxCell>
        <mxCell id="AMsg4iov6ipe1h9Xt787-102" style="edgeStyle=orthogonalEdgeStyle;rounded=0;orthogonalLoop=1;jettySize=auto;html=1;entryX=0.25;entryY=1;entryDx=0;entryDy=0;" edge="1" parent="1" source="AMsg4iov6ipe1h9Xt787-21" target="AMsg4iov6ipe1h9Xt787-17">
          <mxGeometry relative="1" as="geometry" />
        </mxCell>
        <mxCell id="AMsg4iov6ipe1h9Xt787-21" value="&lt;br&gt;Total&lt;div&gt;Amount&lt;br&gt;&lt;br&gt;&lt;/div&gt;" style="ellipse;whiteSpace=wrap;html=1;align=center;" vertex="1" parent="1">
          <mxGeometry x="80" y="720" width="100" height="40" as="geometry" />
        </mxCell>
        <mxCell id="AMsg4iov6ipe1h9Xt787-98" style="edgeStyle=orthogonalEdgeStyle;rounded=0;orthogonalLoop=1;jettySize=auto;html=1;entryX=0.25;entryY=0;entryDx=0;entryDy=0;" edge="1" parent="1" source="AMsg4iov6ipe1h9Xt787-22" target="AMsg4iov6ipe1h9Xt787-17">
          <mxGeometry relative="1" as="geometry" />
        </mxCell>
        <mxCell id="AMsg4iov6ipe1h9Xt787-22" value="&lt;br&gt;VendorID(FK)&lt;div&gt;&lt;br/&gt;&lt;/div&gt;" style="ellipse;whiteSpace=wrap;html=1;align=center;" vertex="1" parent="1">
          <mxGeometry x="60" y="520" width="100" height="40" as="geometry" />
        </mxCell>
        <mxCell id="AMsg4iov6ipe1h9Xt787-51" style="edgeStyle=orthogonalEdgeStyle;rounded=0;orthogonalLoop=1;jettySize=auto;html=1;entryX=0.5;entryY=1;entryDx=0;entryDy=0;" edge="1" parent="1" source="AMsg4iov6ipe1h9Xt787-23" target="AMsg4iov6ipe1h9Xt787-29">
          <mxGeometry relative="1" as="geometry" />
        </mxCell>
        <mxCell id="AMsg4iov6ipe1h9Xt787-23" value="Budgets" style="whiteSpace=wrap;html=1;align=center;" vertex="1" parent="1">
          <mxGeometry x="750" y="580" width="100" height="40" as="geometry" />
        </mxCell>
        <mxCell id="AMsg4iov6ipe1h9Xt787-24" value="Budgets ID" style="ellipse;whiteSpace=wrap;html=1;align=center;fontStyle=4;" vertex="1" parent="1">
          <mxGeometry x="900" y="510" width="100" height="40" as="geometry" />
        </mxCell>
        <mxCell id="AMsg4iov6ipe1h9Xt787-25" value="Spent amount" style="ellipse;whiteSpace=wrap;html=1;align=center;" vertex="1" parent="1">
          <mxGeometry x="760" y="760" width="100" height="40" as="geometry" />
        </mxCell>
        <mxCell id="AMsg4iov6ipe1h9Xt787-26" value="allocated amount" style="ellipse;whiteSpace=wrap;html=1;align=center;" vertex="1" parent="1">
          <mxGeometry x="830" y="710" width="100" height="40" as="geometry" />
        </mxCell>
        <mxCell id="AMsg4iov6ipe1h9Xt787-54" style="edgeStyle=orthogonalEdgeStyle;rounded=0;orthogonalLoop=1;jettySize=auto;html=1;entryX=1;entryY=0.75;entryDx=0;entryDy=0;" edge="1" parent="1" source="AMsg4iov6ipe1h9Xt787-27" target="AMsg4iov6ipe1h9Xt787-23">
          <mxGeometry relative="1" as="geometry" />
        </mxCell>
        <mxCell id="AMsg4iov6ipe1h9Xt787-27" value="DEpartments" style="ellipse;whiteSpace=wrap;html=1;align=center;" vertex="1" parent="1">
          <mxGeometry x="910" y="590" width="100" height="40" as="geometry" />
        </mxCell>
        <mxCell id="AMsg4iov6ipe1h9Xt787-29" value="Remaining amount" style="ellipse;whiteSpace=wrap;html=1;align=center;dashed=1;" vertex="1" parent="1">
          <mxGeometry x="750" y="480" width="100" height="40" as="geometry" />
        </mxCell>
        <mxCell id="AMsg4iov6ipe1h9Xt787-30" value="&lt;br&gt;Performance&lt;div&gt;Evaluation&lt;br&gt;&lt;br&gt;&lt;/div&gt;" style="shape=ext;margin=3;double=1;whiteSpace=wrap;html=1;align=center;" vertex="1" parent="1">
          <mxGeometry x="-70" y="1020" width="130" height="40" as="geometry" />
        </mxCell>
        <mxCell id="AMsg4iov6ipe1h9Xt787-104" style="edgeStyle=orthogonalEdgeStyle;rounded=0;orthogonalLoop=1;jettySize=auto;html=1;entryX=0;entryY=0.25;entryDx=0;entryDy=0;" edge="1" parent="1" source="AMsg4iov6ipe1h9Xt787-31" target="AMsg4iov6ipe1h9Xt787-30">
          <mxGeometry relative="1" as="geometry" />
        </mxCell>
        <mxCell id="AMsg4iov6ipe1h9Xt787-31" value="Evaluation ID" style="ellipse;whiteSpace=wrap;html=1;align=center;fontStyle=4;" vertex="1" parent="1">
          <mxGeometry x="-260" y="970" width="100" height="40" as="geometry" />
        </mxCell>
        <mxCell id="AMsg4iov6ipe1h9Xt787-105" style="edgeStyle=orthogonalEdgeStyle;rounded=0;orthogonalLoop=1;jettySize=auto;html=1;entryX=0;entryY=0.75;entryDx=0;entryDy=0;" edge="1" parent="1" source="AMsg4iov6ipe1h9Xt787-32" target="AMsg4iov6ipe1h9Xt787-30">
          <mxGeometry relative="1" as="geometry" />
        </mxCell>
        <mxCell id="AMsg4iov6ipe1h9Xt787-32" value="VendorID(FK)" style="ellipse;whiteSpace=wrap;html=1;align=center;" vertex="1" parent="1">
          <mxGeometry x="-260" y="1070" width="100" height="40" as="geometry" />
        </mxCell>
        <mxCell id="AMsg4iov6ipe1h9Xt787-33" value="&lt;br&gt;Evaluation&lt;div&gt;Date&lt;br&gt;&lt;br&gt;&lt;/div&gt;" style="ellipse;whiteSpace=wrap;html=1;align=center;" vertex="1" parent="1">
          <mxGeometry x="-80" y="1120" width="100" height="40" as="geometry" />
        </mxCell>
        <mxCell id="AMsg4iov6ipe1h9Xt787-34" value="&#xa;Feedback&#xa;&#xa;" style="ellipse;whiteSpace=wrap;html=1;align=center;" vertex="1" parent="1">
          <mxGeometry x="20" y="920" width="100" height="40" as="geometry" />
        </mxCell>
        <mxCell id="AMsg4iov6ipe1h9Xt787-35" value="&#xa;Rating&#xa;&#xa;" style="ellipse;whiteSpace=wrap;html=1;align=center;" vertex="1" parent="1">
          <mxGeometry x="-110" y="930" width="100" height="40" as="geometry" />
        </mxCell>
        <mxCell id="AMsg4iov6ipe1h9Xt787-37" value="Departments" style="whiteSpace=wrap;html=1;align=center;" vertex="1" parent="1">
          <mxGeometry x="610" y="1070" width="100" height="40" as="geometry" />
        </mxCell>
        <mxCell id="AMsg4iov6ipe1h9Xt787-48" style="edgeStyle=orthogonalEdgeStyle;rounded=0;orthogonalLoop=1;jettySize=auto;html=1;entryX=1;entryY=0;entryDx=0;entryDy=0;" edge="1" parent="1" source="AMsg4iov6ipe1h9Xt787-39" target="AMsg4iov6ipe1h9Xt787-37">
          <mxGeometry relative="1" as="geometry" />
        </mxCell>
        <mxCell id="AMsg4iov6ipe1h9Xt787-39" value="Department ID" style="ellipse;whiteSpace=wrap;html=1;align=center;fontStyle=4;" vertex="1" parent="1">
          <mxGeometry x="660" y="960" width="100" height="40" as="geometry" />
        </mxCell>
        <mxCell id="AMsg4iov6ipe1h9Xt787-49" style="edgeStyle=orthogonalEdgeStyle;rounded=0;orthogonalLoop=1;jettySize=auto;html=1;entryX=1;entryY=0.75;entryDx=0;entryDy=0;" edge="1" parent="1" source="AMsg4iov6ipe1h9Xt787-40" target="AMsg4iov6ipe1h9Xt787-37">
          <mxGeometry relative="1" as="geometry" />
        </mxCell>
        <mxCell id="AMsg4iov6ipe1h9Xt787-40" value="Name" style="ellipse;whiteSpace=wrap;html=1;align=center;" vertex="1" parent="1">
          <mxGeometry x="770" y="1130" width="100" height="40" as="geometry" />
        </mxCell>
        <mxCell id="AMsg4iov6ipe1h9Xt787-41" value="Budgets ID(FK)" style="ellipse;whiteSpace=wrap;html=1;align=center;" vertex="1" parent="1">
          <mxGeometry x="710" y="1230" width="100" height="40" as="geometry" />
        </mxCell>
        <mxCell id="AMsg4iov6ipe1h9Xt787-46" style="edgeStyle=orthogonalEdgeStyle;rounded=0;orthogonalLoop=1;jettySize=auto;html=1;entryX=0.5;entryY=1;entryDx=0;entryDy=0;" edge="1" parent="1" source="AMsg4iov6ipe1h9Xt787-42" target="AMsg4iov6ipe1h9Xt787-37">
          <mxGeometry relative="1" as="geometry" />
        </mxCell>
        <mxCell id="AMsg4iov6ipe1h9Xt787-42" value="Budgets" style="ellipse;whiteSpace=wrap;html=1;align=center;dashed=1;" vertex="1" parent="1">
          <mxGeometry x="610" y="1200" width="100" height="40" as="geometry" />
        </mxCell>
        <mxCell id="AMsg4iov6ipe1h9Xt787-45" style="edgeStyle=orthogonalEdgeStyle;rounded=0;orthogonalLoop=1;jettySize=auto;html=1;" edge="1" parent="1" source="AMsg4iov6ipe1h9Xt787-43">
          <mxGeometry relative="1" as="geometry">
            <mxPoint x="650" y="1070" as="targetPoint" />
          </mxGeometry>
        </mxCell>
        <mxCell id="AMsg4iov6ipe1h9Xt787-43" value="Allocated" style="shape=rhombus;perimeter=rhombusPerimeter;whiteSpace=wrap;html=1;align=center;" vertex="1" parent="1">
          <mxGeometry x="590" y="820" width="120" height="60" as="geometry" />
        </mxCell>
        <mxCell id="AMsg4iov6ipe1h9Xt787-50" style="edgeStyle=orthogonalEdgeStyle;rounded=0;orthogonalLoop=1;jettySize=auto;html=1;entryX=0.923;entryY=1.083;entryDx=0;entryDy=0;entryPerimeter=0;" edge="1" parent="1" source="AMsg4iov6ipe1h9Xt787-41" target="AMsg4iov6ipe1h9Xt787-37">
          <mxGeometry relative="1" as="geometry" />
        </mxCell>
        <mxCell id="AMsg4iov6ipe1h9Xt787-52" style="edgeStyle=orthogonalEdgeStyle;rounded=0;orthogonalLoop=1;jettySize=auto;html=1;entryX=0.87;entryY=0.033;entryDx=0;entryDy=0;entryPerimeter=0;" edge="1" parent="1" source="AMsg4iov6ipe1h9Xt787-24" target="AMsg4iov6ipe1h9Xt787-23">
          <mxGeometry relative="1" as="geometry" />
        </mxCell>
        <mxCell id="AMsg4iov6ipe1h9Xt787-53" style="edgeStyle=orthogonalEdgeStyle;rounded=0;orthogonalLoop=1;jettySize=auto;html=1;entryX=0.923;entryY=1.033;entryDx=0;entryDy=0;entryPerimeter=0;" edge="1" parent="1" source="AMsg4iov6ipe1h9Xt787-26" target="AMsg4iov6ipe1h9Xt787-23">
          <mxGeometry relative="1" as="geometry" />
        </mxCell>
        <mxCell id="AMsg4iov6ipe1h9Xt787-55" style="edgeStyle=orthogonalEdgeStyle;rounded=0;orthogonalLoop=1;jettySize=auto;html=1;entryX=0.163;entryY=1.033;entryDx=0;entryDy=0;entryPerimeter=0;" edge="1" parent="1" source="AMsg4iov6ipe1h9Xt787-25" target="AMsg4iov6ipe1h9Xt787-23">
          <mxGeometry relative="1" as="geometry" />
        </mxCell>
        <mxCell id="AMsg4iov6ipe1h9Xt787-56" value="" style="edgeStyle=entityRelationEdgeStyle;fontSize=12;html=1;endArrow=ERoneToMany;startArrow=ERmandOne;rounded=0;entryX=0;entryY=0.75;entryDx=0;entryDy=0;" edge="1" parent="1" target="AMsg4iov6ipe1h9Xt787-23">
          <mxGeometry width="100" height="100" relative="1" as="geometry">
            <mxPoint x="710" y="850" as="sourcePoint" />
            <mxPoint x="810" y="750" as="targetPoint" />
          </mxGeometry>
        </mxCell>
        <mxCell id="AMsg4iov6ipe1h9Xt787-58" style="edgeStyle=orthogonalEdgeStyle;rounded=0;orthogonalLoop=1;jettySize=auto;html=1;entryX=1;entryY=0.25;entryDx=0;entryDy=0;" edge="1" parent="1" source="AMsg4iov6ipe1h9Xt787-57" target="AMsg4iov6ipe1h9Xt787-1">
          <mxGeometry relative="1" as="geometry" />
        </mxCell>
        <mxCell id="AMsg4iov6ipe1h9Xt787-57" value="Sign" style="shape=rhombus;perimeter=rhombusPerimeter;whiteSpace=wrap;html=1;align=center;" vertex="1" parent="1">
          <mxGeometry x="420" y="130" width="120" height="60" as="geometry" />
        </mxCell>
        <mxCell id="AMsg4iov6ipe1h9Xt787-60" value="" style="endArrow=none;html=1;rounded=0;exitX=0.884;exitY=0.619;exitDx=0;exitDy=0;exitPerimeter=0;entryX=-0.004;entryY=0.393;entryDx=0;entryDy=0;entryPerimeter=0;" edge="1" parent="1" source="AMsg4iov6ipe1h9Xt787-57" target="AMsg4iov6ipe1h9Xt787-11">
          <mxGeometry relative="1" as="geometry">
            <mxPoint x="540" y="168.67000000000002" as="sourcePoint" />
            <mxPoint x="750" y="169" as="targetPoint" />
          </mxGeometry>
        </mxCell>
        <mxCell id="AMsg4iov6ipe1h9Xt787-61" value="" style="endArrow=none;html=1;rounded=0;entryX=0;entryY=0.25;entryDx=0;entryDy=0;" edge="1" parent="1" target="AMsg4iov6ipe1h9Xt787-11">
          <mxGeometry relative="1" as="geometry">
            <mxPoint x="540" y="160" as="sourcePoint" />
            <mxPoint x="700" y="160" as="targetPoint" />
          </mxGeometry>
        </mxCell>
        <mxCell id="AMsg4iov6ipe1h9Xt787-62" value="" style="endArrow=none;html=1;rounded=0;" edge="1" parent="1">
          <mxGeometry relative="1" as="geometry">
            <mxPoint x="710" y="1089.17" as="sourcePoint" />
            <mxPoint x="1320" y="720" as="targetPoint" />
          </mxGeometry>
        </mxCell>
        <mxCell id="AMsg4iov6ipe1h9Xt787-63" value="Have" style="shape=rhombus;perimeter=rhombusPerimeter;whiteSpace=wrap;html=1;align=center;" vertex="1" parent="1">
          <mxGeometry x="1270" y="660" width="120" height="60" as="geometry" />
        </mxCell>
        <mxCell id="AMsg4iov6ipe1h9Xt787-64" value="" style="endArrow=none;html=1;rounded=0;exitX=1;exitY=1;exitDx=0;exitDy=0;" edge="1" parent="1" source="AMsg4iov6ipe1h9Xt787-11">
          <mxGeometry relative="1" as="geometry">
            <mxPoint x="1170" y="660" as="sourcePoint" />
            <mxPoint x="1320" y="660" as="targetPoint" />
          </mxGeometry>
        </mxCell>
        <mxCell id="AMsg4iov6ipe1h9Xt787-65" value="" style="endArrow=none;html=1;rounded=0;entryX=0.5;entryY=0;entryDx=0;entryDy=0;" edge="1" parent="1" target="AMsg4iov6ipe1h9Xt787-63">
          <mxGeometry relative="1" as="geometry">
            <mxPoint x="860" y="180" as="sourcePoint" />
            <mxPoint x="1350" y="650" as="targetPoint" />
          </mxGeometry>
        </mxCell>
        <mxCell id="AMsg4iov6ipe1h9Xt787-66" value="1" style="text;html=1;align=center;verticalAlign=middle;whiteSpace=wrap;rounded=0;" vertex="1" parent="1">
          <mxGeometry x="600" y="1040" width="60" height="30" as="geometry" />
        </mxCell>
        <mxCell id="AMsg4iov6ipe1h9Xt787-67" value="N" style="text;html=1;align=center;verticalAlign=middle;whiteSpace=wrap;rounded=0;" vertex="1" parent="1">
          <mxGeometry x="700" y="580" width="60" height="30" as="geometry" />
        </mxCell>
        <mxCell id="AMsg4iov6ipe1h9Xt787-68" value="1" style="text;html=1;align=center;verticalAlign=middle;whiteSpace=wrap;rounded=0;" vertex="1" parent="1">
          <mxGeometry x="200" y="130" width="60" height="30" as="geometry" />
        </mxCell>
        <mxCell id="AMsg4iov6ipe1h9Xt787-69" value="N" style="text;html=1;align=center;verticalAlign=middle;whiteSpace=wrap;rounded=0;" vertex="1" parent="1">
          <mxGeometry x="660" y="130" width="60" height="30" as="geometry" />
        </mxCell>
        <mxCell id="AMsg4iov6ipe1h9Xt787-70" value="1" style="text;html=1;align=center;verticalAlign=middle;whiteSpace=wrap;rounded=0;" vertex="1" parent="1">
          <mxGeometry x="950" y="925" width="60" height="30" as="geometry" />
        </mxCell>
        <mxCell id="AMsg4iov6ipe1h9Xt787-71" value="N" style="text;html=1;align=center;verticalAlign=middle;whiteSpace=wrap;rounded=0;" vertex="1" parent="1">
          <mxGeometry x="1140" y="450" width="60" height="30" as="geometry" />
        </mxCell>
        <mxCell id="AMsg4iov6ipe1h9Xt787-72" value="Places" style="shape=rhombus;perimeter=rhombusPerimeter;whiteSpace=wrap;html=1;align=center;" vertex="1" parent="1">
          <mxGeometry x="220" y="310" width="120" height="60" as="geometry" />
        </mxCell>
        <mxCell id="AMsg4iov6ipe1h9Xt787-73" value="" style="endArrow=none;html=1;rounded=0;entryX=0.5;entryY=1;entryDx=0;entryDy=0;" edge="1" parent="1" target="AMsg4iov6ipe1h9Xt787-72">
          <mxGeometry relative="1" as="geometry">
            <mxPoint x="200" y="618.75" as="sourcePoint" />
            <mxPoint x="360" y="618.75" as="targetPoint" />
          </mxGeometry>
        </mxCell>
        <mxCell id="AMsg4iov6ipe1h9Xt787-74" value="" style="endArrow=none;html=1;rounded=0;entryX=1;entryY=1;entryDx=0;entryDy=0;" edge="1" parent="1" target="AMsg4iov6ipe1h9Xt787-1">
          <mxGeometry relative="1" as="geometry">
            <mxPoint x="280" y="310" as="sourcePoint" />
            <mxPoint x="440" y="310" as="targetPoint" />
          </mxGeometry>
        </mxCell>
        <mxCell id="AMsg4iov6ipe1h9Xt787-75" value="" style="endArrow=none;html=1;rounded=0;entryX=0.568;entryY=0.983;entryDx=0;entryDy=0;entryPerimeter=0;" edge="1" parent="1" target="AMsg4iov6ipe1h9Xt787-72">
          <mxGeometry relative="1" as="geometry">
            <mxPoint x="220" y="610" as="sourcePoint" />
            <mxPoint x="280" y="370" as="targetPoint" />
          </mxGeometry>
        </mxCell>
        <mxCell id="AMsg4iov6ipe1h9Xt787-76" value="1" style="text;html=1;align=center;verticalAlign=middle;whiteSpace=wrap;rounded=0;" vertex="1" parent="1">
          <mxGeometry x="240" y="250" width="60" height="30" as="geometry" />
        </mxCell>
        <mxCell id="AMsg4iov6ipe1h9Xt787-77" value="N" style="text;html=1;align=center;verticalAlign=middle;whiteSpace=wrap;rounded=0;" vertex="1" parent="1">
          <mxGeometry x="250" y="460" width="60" height="30" as="geometry" />
        </mxCell>
        <mxCell id="AMsg4iov6ipe1h9Xt787-78" value="Result" style="shape=rhombus;perimeter=rhombusPerimeter;whiteSpace=wrap;html=1;align=center;" vertex="1" parent="1">
          <mxGeometry x="470" y="360" width="120" height="60" as="geometry" />
        </mxCell>
        <mxCell id="AMsg4iov6ipe1h9Xt787-79" value="" style="endArrow=none;html=1;rounded=0;" edge="1" parent="1" source="AMsg4iov6ipe1h9Xt787-78">
          <mxGeometry relative="1" as="geometry">
            <mxPoint x="600" y="188.45999999999998" as="sourcePoint" />
            <mxPoint x="760" y="188.45999999999998" as="targetPoint" />
          </mxGeometry>
        </mxCell>
        <mxCell id="AMsg4iov6ipe1h9Xt787-80" value="" style="endArrow=none;html=1;rounded=0;entryX=0;entryY=1;entryDx=0;entryDy=0;exitX=1;exitY=0;exitDx=0;exitDy=0;" edge="1" parent="1" source="AMsg4iov6ipe1h9Xt787-17" target="AMsg4iov6ipe1h9Xt787-78">
          <mxGeometry relative="1" as="geometry">
            <mxPoint x="210" y="640" as="sourcePoint" />
            <mxPoint x="490" y="530" as="targetPoint" />
          </mxGeometry>
        </mxCell>
        <mxCell id="AMsg4iov6ipe1h9Xt787-81" value="" style="endArrow=none;html=1;rounded=0;entryX=0.088;entryY=0.692;entryDx=0;entryDy=0;entryPerimeter=0;" edge="1" parent="1" target="AMsg4iov6ipe1h9Xt787-78">
          <mxGeometry relative="1" as="geometry">
            <mxPoint x="210" y="630" as="sourcePoint" />
            <mxPoint x="490" y="530" as="targetPoint" />
          </mxGeometry>
        </mxCell>
        <mxCell id="AMsg4iov6ipe1h9Xt787-82" value="" style="endArrow=none;html=1;rounded=0;entryX=0;entryY=1;entryDx=0;entryDy=0;" edge="1" parent="1" target="AMsg4iov6ipe1h9Xt787-17">
          <mxGeometry relative="1" as="geometry">
            <mxPoint x="210" y="640" as="sourcePoint" />
            <mxPoint x="500" y="405" as="targetPoint" />
          </mxGeometry>
        </mxCell>
        <mxCell id="AMsg4iov6ipe1h9Xt787-17" value="&lt;br&gt;Purchase&lt;div&gt;Order&lt;br&gt;&lt;br&gt;&lt;/div&gt;" style="whiteSpace=wrap;html=1;align=center;" vertex="1" parent="1">
          <mxGeometry x="140" y="610" width="100" height="40" as="geometry" />
        </mxCell>
        <mxCell id="AMsg4iov6ipe1h9Xt787-83" value="1" style="text;html=1;align=center;verticalAlign=middle;whiteSpace=wrap;rounded=0;" vertex="1" parent="1">
          <mxGeometry x="590" y="280" width="60" height="30" as="geometry" />
        </mxCell>
        <mxCell id="AMsg4iov6ipe1h9Xt787-84" value="N" style="text;html=1;align=center;verticalAlign=middle;whiteSpace=wrap;rounded=0;" vertex="1" parent="1">
          <mxGeometry x="390" y="490" width="60" height="30" as="geometry" />
        </mxCell>
        <mxCell id="AMsg4iov6ipe1h9Xt787-85" style="edgeStyle=orthogonalEdgeStyle;rounded=0;orthogonalLoop=1;jettySize=auto;html=1;entryX=0.02;entryY=0.14;entryDx=0;entryDy=0;entryPerimeter=0;" edge="1" parent="1" source="AMsg4iov6ipe1h9Xt787-9" target="AMsg4iov6ipe1h9Xt787-1">
          <mxGeometry relative="1" as="geometry" />
        </mxCell>
        <mxCell id="AMsg4iov6ipe1h9Xt787-87" style="edgeStyle=orthogonalEdgeStyle;rounded=0;orthogonalLoop=1;jettySize=auto;html=1;entryX=0.404;entryY=1.1;entryDx=0;entryDy=0;entryPerimeter=0;" edge="1" parent="1" source="AMsg4iov6ipe1h9Xt787-6" target="AMsg4iov6ipe1h9Xt787-1">
          <mxGeometry relative="1" as="geometry" />
        </mxCell>
        <mxCell id="AMsg4iov6ipe1h9Xt787-88" style="edgeStyle=orthogonalEdgeStyle;rounded=0;orthogonalLoop=1;jettySize=auto;html=1;entryX=0.092;entryY=1.08;entryDx=0;entryDy=0;entryPerimeter=0;" edge="1" parent="1" source="AMsg4iov6ipe1h9Xt787-13" target="AMsg4iov6ipe1h9Xt787-1">
          <mxGeometry relative="1" as="geometry" />
        </mxCell>
        <mxCell id="AMsg4iov6ipe1h9Xt787-89" style="edgeStyle=orthogonalEdgeStyle;rounded=0;orthogonalLoop=1;jettySize=auto;html=1;entryX=0.396;entryY=-0.06;entryDx=0;entryDy=0;entryPerimeter=0;" edge="1" parent="1" source="AMsg4iov6ipe1h9Xt787-10" target="AMsg4iov6ipe1h9Xt787-1">
          <mxGeometry relative="1" as="geometry" />
        </mxCell>
        <mxCell id="AMsg4iov6ipe1h9Xt787-90" style="edgeStyle=orthogonalEdgeStyle;rounded=0;orthogonalLoop=1;jettySize=auto;html=1;entryX=0.084;entryY=-0.02;entryDx=0;entryDy=0;entryPerimeter=0;" edge="1" parent="1" source="AMsg4iov6ipe1h9Xt787-2" target="AMsg4iov6ipe1h9Xt787-1">
          <mxGeometry relative="1" as="geometry" />
        </mxCell>
        <mxCell id="AMsg4iov6ipe1h9Xt787-91" style="edgeStyle=orthogonalEdgeStyle;rounded=0;orthogonalLoop=1;jettySize=auto;html=1;entryX=0.308;entryY=-0.04;entryDx=0;entryDy=0;entryPerimeter=0;" edge="1" parent="1" source="AMsg4iov6ipe1h9Xt787-5" target="AMsg4iov6ipe1h9Xt787-11">
          <mxGeometry relative="1" as="geometry" />
        </mxCell>
        <mxCell id="AMsg4iov6ipe1h9Xt787-92" style="edgeStyle=orthogonalEdgeStyle;rounded=0;orthogonalLoop=1;jettySize=auto;html=1;entryX=0.9;entryY=0;entryDx=0;entryDy=0;entryPerimeter=0;" edge="1" parent="1" source="AMsg4iov6ipe1h9Xt787-12" target="AMsg4iov6ipe1h9Xt787-11">
          <mxGeometry relative="1" as="geometry" />
        </mxCell>
        <mxCell id="AMsg4iov6ipe1h9Xt787-93" style="edgeStyle=orthogonalEdgeStyle;rounded=0;orthogonalLoop=1;jettySize=auto;html=1;entryX=0.148;entryY=1.1;entryDx=0;entryDy=0;entryPerimeter=0;" edge="1" parent="1" source="AMsg4iov6ipe1h9Xt787-16" target="AMsg4iov6ipe1h9Xt787-11">
          <mxGeometry relative="1" as="geometry" />
        </mxCell>
        <mxCell id="AMsg4iov6ipe1h9Xt787-95" style="edgeStyle=orthogonalEdgeStyle;rounded=0;orthogonalLoop=1;jettySize=auto;html=1;entryX=0.812;entryY=1.1;entryDx=0;entryDy=0;entryPerimeter=0;" edge="1" parent="1" source="AMsg4iov6ipe1h9Xt787-3" target="AMsg4iov6ipe1h9Xt787-11">
          <mxGeometry relative="1" as="geometry" />
        </mxCell>
        <mxCell id="AMsg4iov6ipe1h9Xt787-103" style="edgeStyle=orthogonalEdgeStyle;rounded=0;orthogonalLoop=1;jettySize=auto;html=1;entryX=0.908;entryY=1.06;entryDx=0;entryDy=0;entryPerimeter=0;" edge="1" parent="1" source="AMsg4iov6ipe1h9Xt787-19" target="AMsg4iov6ipe1h9Xt787-17">
          <mxGeometry relative="1" as="geometry" />
        </mxCell>
        <mxCell id="AMsg4iov6ipe1h9Xt787-106" style="edgeStyle=orthogonalEdgeStyle;rounded=0;orthogonalLoop=1;jettySize=auto;html=1;entryX=0.302;entryY=0.93;entryDx=0;entryDy=0;entryPerimeter=0;" edge="1" parent="1" source="AMsg4iov6ipe1h9Xt787-33" target="AMsg4iov6ipe1h9Xt787-30">
          <mxGeometry relative="1" as="geometry" />
        </mxCell>
        <mxCell id="AMsg4iov6ipe1h9Xt787-107" style="edgeStyle=orthogonalEdgeStyle;rounded=0;orthogonalLoop=1;jettySize=auto;html=1;entryX=0.077;entryY=0;entryDx=0;entryDy=0;entryPerimeter=0;" edge="1" parent="1" source="AMsg4iov6ipe1h9Xt787-35" target="AMsg4iov6ipe1h9Xt787-30">
          <mxGeometry relative="1" as="geometry" />
        </mxCell>
        <mxCell id="AMsg4iov6ipe1h9Xt787-108" style="edgeStyle=orthogonalEdgeStyle;rounded=0;orthogonalLoop=1;jettySize=auto;html=1;entryX=0.898;entryY=-0.09;entryDx=0;entryDy=0;entryPerimeter=0;" edge="1" parent="1" source="AMsg4iov6ipe1h9Xt787-34" target="AMsg4iov6ipe1h9Xt787-30">
          <mxGeometry relative="1" as="geometry" />
        </mxCell>
        <mxCell id="AMsg4iov6ipe1h9Xt787-109" value="User" style="whiteSpace=wrap;html=1;align=center;" vertex="1" parent="1">
          <mxGeometry x="50" y="1370" width="100" height="40" as="geometry" />
        </mxCell>
        <mxCell id="AMsg4iov6ipe1h9Xt787-110" value="UserID" style="ellipse;whiteSpace=wrap;html=1;align=center;fontStyle=0;" vertex="1" parent="1">
          <mxGeometry x="-60" y="1470" width="100" height="40" as="geometry" />
        </mxCell>
        <mxCell id="AMsg4iov6ipe1h9Xt787-120" style="edgeStyle=orthogonalEdgeStyle;rounded=0;orthogonalLoop=1;jettySize=auto;html=1;" edge="1" parent="1" source="AMsg4iov6ipe1h9Xt787-111">
          <mxGeometry relative="1" as="geometry">
            <mxPoint x="90" y="1420" as="targetPoint" />
          </mxGeometry>
        </mxCell>
        <mxCell id="AMsg4iov6ipe1h9Xt787-111" value="username" style="ellipse;whiteSpace=wrap;html=1;align=center;" vertex="1" parent="1">
          <mxGeometry x="40" y="1530" width="100" height="40" as="geometry" />
        </mxCell>
        <mxCell id="AMsg4iov6ipe1h9Xt787-112" value="Password" style="ellipse;whiteSpace=wrap;html=1;align=center;" vertex="1" parent="1">
          <mxGeometry x="140" y="1580" width="100" height="40" as="geometry" />
        </mxCell>
        <mxCell id="AMsg4iov6ipe1h9Xt787-122" style="edgeStyle=orthogonalEdgeStyle;rounded=0;orthogonalLoop=1;jettySize=auto;html=1;entryX=1;entryY=0.75;entryDx=0;entryDy=0;" edge="1" parent="1" source="AMsg4iov6ipe1h9Xt787-113" target="AMsg4iov6ipe1h9Xt787-109">
          <mxGeometry relative="1" as="geometry" />
        </mxCell>
        <mxCell id="AMsg4iov6ipe1h9Xt787-113" value="Role" style="ellipse;shape=doubleEllipse;margin=3;whiteSpace=wrap;html=1;align=center;" vertex="1" parent="1">
          <mxGeometry x="250" y="1380" width="100" height="40" as="geometry" />
        </mxCell>
        <mxCell id="AMsg4iov6ipe1h9Xt787-114" value="have" style="shape=rhombus;perimeter=rhombusPerimeter;whiteSpace=wrap;html=1;align=center;" vertex="1" parent="1">
          <mxGeometry x="-360" y="420" width="120" height="60" as="geometry" />
        </mxCell>
        <mxCell id="AMsg4iov6ipe1h9Xt787-116" value="" style="endArrow=none;html=1;rounded=0;entryX=0;entryY=1;entryDx=0;entryDy=0;" edge="1" parent="1" target="AMsg4iov6ipe1h9Xt787-1">
          <mxGeometry relative="1" as="geometry">
            <mxPoint x="-300" y="418.46" as="sourcePoint" />
            <mxPoint x="-140" y="418.46" as="targetPoint" />
          </mxGeometry>
        </mxCell>
        <mxCell id="AMsg4iov6ipe1h9Xt787-117" value="" style="endArrow=none;html=1;rounded=0;entryX=0.5;entryY=1;entryDx=0;entryDy=0;" edge="1" parent="1" target="AMsg4iov6ipe1h9Xt787-114">
          <mxGeometry relative="1" as="geometry">
            <mxPoint x="-350" y="1430" as="sourcePoint" />
            <mxPoint x="-260" y="1040" as="targetPoint" />
          </mxGeometry>
        </mxCell>
        <mxCell id="AMsg4iov6ipe1h9Xt787-118" value="" style="endArrow=none;html=1;rounded=0;entryX=0;entryY=0.5;entryDx=0;entryDy=0;" edge="1" parent="1" target="AMsg4iov6ipe1h9Xt787-109">
          <mxGeometry relative="1" as="geometry">
            <mxPoint x="-350" y="1430" as="sourcePoint" />
            <mxPoint x="-160" y="1460" as="targetPoint" />
          </mxGeometry>
        </mxCell>
        <mxCell id="AMsg4iov6ipe1h9Xt787-119" style="edgeStyle=orthogonalEdgeStyle;rounded=0;orthogonalLoop=1;jettySize=auto;html=1;entryX=0.076;entryY=1;entryDx=0;entryDy=0;entryPerimeter=0;" edge="1" parent="1" source="AMsg4iov6ipe1h9Xt787-110" target="AMsg4iov6ipe1h9Xt787-109">
          <mxGeometry relative="1" as="geometry" />
        </mxCell>
        <mxCell id="AMsg4iov6ipe1h9Xt787-121" style="edgeStyle=orthogonalEdgeStyle;rounded=0;orthogonalLoop=1;jettySize=auto;html=1;entryX=0.9;entryY=1;entryDx=0;entryDy=0;entryPerimeter=0;" edge="1" parent="1" source="AMsg4iov6ipe1h9Xt787-112" target="AMsg4iov6ipe1h9Xt787-109">
          <mxGeometry relative="1" as="geometry" />
        </mxCell>
        <mxCell id="AMsg4iov6ipe1h9Xt787-123" value="1" style="text;html=1;align=center;verticalAlign=middle;whiteSpace=wrap;rounded=0;" vertex="1" parent="1">
          <mxGeometry x="-260" y="330" width="60" height="30" as="geometry" />
        </mxCell>
        <mxCell id="AMsg4iov6ipe1h9Xt787-124" value="N" style="text;html=1;align=center;verticalAlign=middle;whiteSpace=wrap;rounded=0;" vertex="1" parent="1">
          <mxGeometry x="-370" y="720" width="60" height="30" as="geometry" />
        </mxCell>
      </root>
    </mxGraphModel>
  </diagram>
</mxfile>
